<mxfile host="Electron" modified="2023-12-20T13:04:32.909Z" agent="Mozilla/5.0 (Windows NT 10.0; Win64; x64) AppleWebKit/537.36 (KHTML, like Gecko) draw.io/22.1.2 Chrome/114.0.5735.289 Electron/25.9.4 Safari/537.36" etag="wvmzT22ovPzXrEHwRFjF" version="22.1.2" type="device">
  <diagram name="Page-1" id="F6zNAIhKZvnCwyZnM2XC">
    <mxGraphModel dx="4971" dy="1287" grid="1" gridSize="10" guides="1" tooltips="1" connect="1" arrows="1" fold="1" page="1" pageScale="1" pageWidth="827" pageHeight="1169" math="0" shadow="0">
      <root>
        <mxCell id="0" />
        <mxCell id="1" parent="0" />
        <mxCell id="YvXR59OuClY3GL-xS_Ny-1" value="&lt;p style=&quot;margin:0px;margin-top:4px;text-align:center;&quot;&gt;&lt;b&gt;Student&lt;/b&gt;&lt;/p&gt;&lt;hr size=&quot;1&quot;/&gt;&lt;p style=&quot;margin:0 0 0 4px;line-height:1.6;&quot;&gt;+ Student(int, String, String, String, String, byte): &lt;/p&gt;&lt;hr size=&quot;1&quot;/&gt;&lt;p style=&quot;margin:0 0 0 4px;line-height:1.6;&quot;&gt;- semester: byte&lt;br/&gt;- logger: Logger&lt;br/&gt;- advisor: Advisor&lt;br/&gt;- availableCoursesToDrop: List&amp;lt;Course&amp;gt;&lt;br/&gt;- labSections: List&amp;lt;LaboratorySection&amp;gt;&lt;br/&gt;- transcript: Transcript&lt;br/&gt;- availableCoursesToAdd: List&amp;lt;Course&amp;gt;&lt;br/&gt;- notification: Notification&lt;br/&gt;- schedule: Course[][]&lt;br/&gt;- draft: List&amp;lt;Course&amp;gt;&lt;br/&gt;- hasRequest: boolean&lt;/p&gt;&lt;hr size=&quot;1&quot;/&gt;&lt;p style=&quot;margin:0 0 0 4px;line-height:1.6;&quot;&gt;+ setTranscript(Transcript): void&lt;br/&gt;- checkThePrerequisiteAndCourseThatWasTaken(Course): boolean&lt;br/&gt;+ getTranscript(): Transcript&lt;br/&gt;+ getAdvisor(): Advisor&lt;br/&gt;+ hasCourseOverlap(Course, boolean): boolean&lt;br/&gt;+ isHasRequest(): boolean&lt;br/&gt;- computeAvailableCoursesToDrop(): void&lt;br/&gt;+ getSemester(): byte&lt;br/&gt;- addFacultyTechnicalElective(): void&lt;br/&gt;+ getSchedule(): Course[][]&lt;br/&gt;- maxCoursesReached(): boolean&lt;br/&gt;- addTechnicalElective(): void&lt;br/&gt;- chooseLabSection(Course): void&lt;br/&gt;+ setDraft(List&amp;lt;Course&amp;gt;): void&lt;br/&gt;+ getDraft(): List&amp;lt;Course&amp;gt;&lt;br/&gt;- computeAvailableMandatoryCourses(): void&lt;br/&gt;- addCourseToDrop(): void&lt;br/&gt;+ setHasRequest(boolean): void&lt;br/&gt;- computeAvailableTEAndFTECourses(String): void&lt;br/&gt;- addNonTechnicalElective(): void&lt;br/&gt;- computeAvailableNTECourses(): void&lt;br/&gt;+ setNotification(Notification): void&lt;br/&gt;+ setPassword(String): void&lt;br/&gt;+ login(String, String): boolean&lt;br/&gt;+ setAdvisor(Advisor): void&lt;br/&gt;- addMandatoryCourse(): void&lt;br/&gt;+ removeCourseFromDraft(): void&lt;br/&gt;+ calculateNumberOfCourses(): int&lt;br/&gt;+ addCourseToDraft(): void&lt;br/&gt;+ printMenu(String): void&lt;br/&gt;+ showRequestStatus(): void&lt;br/&gt;+ getDepartmentName(): String&lt;br/&gt;+ sendRequest(): void&lt;br/&gt;+ setUserName(String): void&lt;br/&gt;+ getLabSections(): List&amp;lt;LaboratorySection&amp;gt;&lt;/p&gt;" style="verticalAlign=top;align=left;overflow=fill;fontSize=14;fontFamily=Helvetica;html=1;rounded=0;shadow=0;comic=0;labelBackgroundColor=none;strokeWidth=1;" vertex="1" parent="1">
          <mxGeometry x="-570" y="1660" width="451" height="1125" as="geometry" />
        </mxCell>
      </root>
    </mxGraphModel>
  </diagram>
</mxfile>
